# xmcd CD database file
#
# Track frame offsets:
#	150
#	22691
#	39396
#	50673
#	63557
#	90001
#	104907
#	124548
#	137905
#	163830
#
# Disc length: 2355 seconds
#
# Revision: 2
# Processed by: cddbd v1.5.2PL0 Copyright (c) Steve Scherf et al.
# Submitted via: CDex 1.70beta2
#
DISCID=8009310a
DTITLE=Farscape - Demon's Massacre
DYEAR=2003
DGENRE=Thrash Metal
TTITLE0=Demon's Massacre
TTITLE1=Assassin
TTITLE2=Doctrine Sickness
TTITLE3=Hatebreed
TTITLE4=Unholy Cross
TTITLE5=Violent Sacrifice
TTITLE6=Funeral Lust
TTITLE7=Carrasco Do Metal
TTITLE8=No Remorse To Kill
TTITLE9=Sacrifice
EXTD=YEAR: 2003
EXTT0=
EXTT1=
EXTT2=
EXTT3=
EXTT4=
EXTT5=
EXTT6=
EXTT7=
EXTT8=
EXTT9=
PLAYORDER=
